<svg xmlns="http://www.w3.org/2000/svg" width="211.78" height="67.32" viewBox="0 0 211.78 67.32"><path d="M84.06,64.33a2.28,2.28,0,0,1-1.75-.63,2.16,2.16,0,0,1-.58-1.53v-5h-1V56h1V54.27l1.78-.5V56H85v1.17H83.51v4.92a1,1,0,0,0,.22.7.84.84,0,0,0,.69.25l.4,0,.2,0V64.2l-.15,0-.35.07h0A3,3,0,0,1,84.06,64.33Z" transform="translate(-0.22 -0.1)" fill="#fff"/><path d="M201,64.28h-1.52l-3-8.24h1.9l1.85,5.77.06.2c0-.06.05-.13.07-.21L202.21,56h1.7Z" transform="translate(-0.22 -0.1)" fill="#fff"/><path d="M144.08,22.86h-4.3L138.13,9.71l-4.51,13.15h-3L126.14,9.7l-1.68,13.16h-4L123.3,2.45h4.33l4.56,14.27,4.69-14.26h4.33Z" transform="translate(-0.22 -0.1)" fill="#fff"/><path d="M193.14,22.86h-4.32V10.65a2.43,2.43,0,0,0-.62-1.73,3.16,3.16,0,0,0-2.32-.66,9.3,9.3,0,0,0-1.68.13,6.62,6.62,0,0,0-.9.23V22.86H179V6.5l.44-.2a13.12,13.12,0,0,1,3-.89,20.36,20.36,0,0,1,3.74-.3c2.45,0,4.19.52,5.32,1.58a5.13,5.13,0,0,1,1.71,3.9Z" transform="translate(-0.22 -0.1)" fill="#fff"/><path d="M202.9,23.22c-2.45,0-4.19-.51-5.33-1.57a5.18,5.18,0,0,1-1.71-3.91V5.47h4.32V17.68a2.5,2.5,0,0,0,.62,1.74,3.18,3.18,0,0,0,2.32.65,9.64,9.64,0,0,0,1.69-.12,6.62,6.62,0,0,0,.9-.23V5.47H210V21.84l-.43.19a13.29,13.29,0,0,1-3,.9A21.45,21.45,0,0,1,202.9,23.22Z" transform="translate(-0.22 -0.1)" fill="#fff"/><path d="M97,22.86H92.67V5.41H97Z" transform="translate(-0.22 -0.1)" fill="#fff"/><path d="M86.6,22.87l-7.69-8.65,0,8.64H74.44V2.45h4.42v7.71l7.69-7.7h5.12L82.58,12,91.9,22.86Z" transform="translate(-0.22 -0.1)" fill="#fff"/><path d="M50.44,25s-.14-.1-.26,0c-10,6.5-3.09,21,12.62,22.5a33.34,33.34,0,0,0,1.31-25.22C62.94,32.6,50.46,32.54,50.44,25" transform="translate(-0.22 -0.1)" fill="#fff"/><path d="M44.93,44.94c-1.27-1.88,3.22,5.58,5.92,16.26A33.27,33.27,0,0,0,60.23,52c-6.63-.31-13.75-4.78-15.3-7.06" transform="translate(-0.22 -0.1)" fill="#fff"/><path d="M47.09,14.89C24,15.48,12.27,33.32,12.32,33.3,16.38,30,19.71,30.16,23,30.16,36.09,30.16,42.2,42.52,41.2,40,33.86,21.79,56.92,13,57,22.85c0,1.77,5.68-8.35-9.86-8" transform="translate(-0.22 -0.1)" fill="#fff"/><path d="M2.38,45.1A32.94,32.94,0,0,0,33.1,66.47,32.4,32.4,0,0,0,44,64.59a77.3,77.3,0,0,0-3.47-12.93C35.18,37.92,21.47,31.5,14.24,39c-3.16,3.28,1.3,7,1.3,6.83.05-6.83,11.44-4.67,9.81,2.3C23.61,55.59,5,53.67,7.23,39.05c.09-.57-2.4,2.27-4.85,6.05" transform="translate(-0.22 -0.1)" fill="#fff"/><path d="M57.18,10.73A32.66,32.66,0,0,0,33.1.1,33.17,33.17,0,0,0,.42,36.91C18.82,10.18,44.88,5.4,57.18,10.73" transform="translate(-0.22 -0.1)" fill="#fff"/><path d="M212,59.93a4.43,4.43,0,0,0-.9-3,3.27,3.27,0,0,0-2.58-1A3.45,3.45,0,0,0,205.86,57a4.51,4.51,0,0,0-1,3.13A4.33,4.33,0,0,0,206,63.34a4,4,0,0,0,2.94,1.08,6.68,6.68,0,0,0,1.56-.16,4.66,4.66,0,0,0,1.15-.4l.15-.08-.52-1.18-.17.09a3.54,3.54,0,0,1-.88.32,5.6,5.6,0,0,1-1.17.11,2.55,2.55,0,0,1-1.81-.62,2.33,2.33,0,0,1-.64-1.69l5.44-.72Zm-5.49-.18a3.32,3.32,0,0,1,.54-2,1.68,1.68,0,0,1,1.42-.68,1.64,1.64,0,0,1,1.35.53,2.53,2.53,0,0,1,.46,1.61Z" transform="translate(-0.22 -0.1)" fill="#fff"/><path d="M195,64.28h-1.77V56H195Z" transform="translate(-0.22 -0.1)" fill="#fff"/><path d="M194.14,54.88a1.11,1.11,0,0,1-.71-.24.83.83,0,0,1-.3-.64.82.82,0,0,1,.3-.65,1.14,1.14,0,0,1,1.41,0,.83.83,0,0,1,.31.65.84.84,0,0,1-.31.64h0A1.06,1.06,0,0,1,194.14,54.88Z" transform="translate(-0.22 -0.1)" fill="#fff"/><path d="M191,64.28h-1.78V52.45H191Z" transform="translate(-0.22 -0.1)" fill="#fff"/><path d="M184.07,53.86H182.5l-3.88,10.41h1.75l1.07-3H185l1.05,3h1.91Zm-2.26,6.24,1.24-3.57.18-.53c0,.14.1.32.17.53l1.21,3.57Z" transform="translate(-0.22 -0.1)" fill="#fff"/><path d="M170.51,67.42,172,64.08l-2.95-8H171l1.81,5.78a1.72,1.72,0,0,1,.07.21c0-.07,0-.14.07-.22L174.85,56h1.71l-4.12,11.38Z" transform="translate(-0.22 -0.1)" fill="#fff"/><path d="M166.84,56.53a3.9,3.9,0,0,0-2.29-.64,6.39,6.39,0,0,0-1.55.19,5.65,5.65,0,0,0-1.18.42l-.16.07.49,1.09.16-.08a6.56,6.56,0,0,1,1-.34,4,4,0,0,1,1.05-.14,2.27,2.27,0,0,1,1.3.32,1.19,1.19,0,0,1,.43,1.06v.32a9.93,9.93,0,0,0-3.47.87,2.35,2.35,0,0,0-1.37,2.25,2.19,2.19,0,0,0,.89,1.86,4.34,4.34,0,0,0,2.59.64,8.28,8.28,0,0,0,1.67-.15,5.2,5.2,0,0,0,1.28-.42l.11-.05V58.63A2.43,2.43,0,0,0,166.84,56.53Zm-.78,6.58a3.18,3.18,0,0,1-1.25.2,2.36,2.36,0,0,1-1.42-.36,1.22,1.22,0,0,1-.45-1.06,1.49,1.49,0,0,1,.75-1.43,7,7,0,0,1,2.37-.63Z" transform="translate(-0.22 -0.1)" fill="#fff"/><path d="M159.15,64.33a2.28,2.28,0,0,1-1.75-.63,2.16,2.16,0,0,1-.58-1.53v-5h-1V56h1V54.27l1.78-.5V56h1.51v1.17H158.6v4.92a1,1,0,0,0,.22.7.84.84,0,0,0,.69.25l.4,0,.2,0V64.2l-.15,0-.35.07h0A3,3,0,0,1,159.15,64.33Z" transform="translate(-0.22 -0.1)" fill="#fff"/><path d="M151,64.42a7.15,7.15,0,0,1-1.54-.14,4.29,4.29,0,0,1-1.12-.44l-.14-.08.52-1.27.18.1a3.8,3.8,0,0,0,.81.32,3.94,3.94,0,0,0,1,.12,2,2,0,0,0,1.39-.46,1.57,1.57,0,0,0,.5-1.24,1.31,1.31,0,0,0-.38-1,4.3,4.3,0,0,0-1.54-.82,3.76,3.76,0,0,1-1.78-1.18,2.61,2.61,0,0,1-.57-1.63,2.89,2.89,0,0,1,.91-2.13,3.33,3.33,0,0,1,2.39-.87,5.44,5.44,0,0,1,1.35.14,3.21,3.21,0,0,1,1,.43l.13.08-.49,1.18-.18-.1a3.69,3.69,0,0,0-.76-.32,2.79,2.79,0,0,0-.9-.13,1.66,1.66,0,0,0-1.22.43,1.55,1.55,0,0,0-.43,1.16,1.21,1.21,0,0,0,.42,1,5.81,5.81,0,0,0,1.6.8A3.6,3.6,0,0,1,154,59.58a2.81,2.81,0,0,1,.55,1.68,2.92,2.92,0,0,1-1,2.28A3.63,3.63,0,0,1,151,64.42Z" transform="translate(-0.22 -0.1)" fill="#fff"/><path d="M143.06,64.33a2.29,2.29,0,0,1-1.76-.63,2.21,2.21,0,0,1-.58-1.53v-5h-1V56h1V54.27l1.78-.5V56H144v1.17H142.5v4.92a1,1,0,0,0,.22.7.84.84,0,0,0,.69.25l.4,0,.2,0V64.2l-.14,0-.36.07h0A3,3,0,0,1,143.06,64.33Z" transform="translate(-0.22 -0.1)" fill="#fff"/><path d="M137.24,56.53a3.86,3.86,0,0,0-2.28-.64,6.53,6.53,0,0,0-1.56.19,5.53,5.53,0,0,0-1.17.42l-.16.07.48,1.09.17-.08a6.56,6.56,0,0,1,1-.34,3.92,3.92,0,0,1,1.05-.14,2.31,2.31,0,0,1,1.3.32,1.21,1.21,0,0,1,.42,1.06v.32a9.87,9.87,0,0,0-3.46.87,2.35,2.35,0,0,0-1.37,2.25,2.19,2.19,0,0,0,.89,1.86,4.33,4.33,0,0,0,2.58.64,8.38,8.38,0,0,0,1.68-.15,5.34,5.34,0,0,0,1.28-.42l.1-.05V58.63A2.43,2.43,0,0,0,137.24,56.53Zm-.78,6.58a3.09,3.09,0,0,1-1.24.2A2.36,2.36,0,0,1,133.8,63a1.2,1.2,0,0,1-.46-1.06,1.51,1.51,0,0,1,.75-1.43,7.14,7.14,0,0,1,2.37-.63Z" transform="translate(-0.22 -0.1)" fill="#fff"/><path d="M129.45,57.07a3.65,3.65,0,0,0-5.38,0,5,5,0,0,0-.88,3.08,4.92,4.92,0,0,0,.89,3.06,3.6,3.6,0,0,0,5.36,0,4.93,4.93,0,0,0,.88-3.07A5.05,5.05,0,0,0,129.45,57.07Zm-1.31,5.32a1.36,1.36,0,0,1-1.37.78,1.4,1.4,0,0,1-1.39-.78,5.13,5.13,0,0,1-.41-2.23,5.45,5.45,0,0,1,.41-2.27,1.38,1.38,0,0,1,1.39-.81,1.36,1.36,0,0,1,1.37.8,5.48,5.48,0,0,1,.4,2.28A5.24,5.24,0,0,1,128.14,62.39Z" transform="translate(-0.22 -0.1)" fill="#fff"/><path d="M121.34,64.28h-1.78V52.45h1.78Z" transform="translate(-0.22 -0.1)" fill="#fff"/><path d="M116.59,64.28h-1.78V57.21h-1V56h1v-.93a2.48,2.48,0,0,1,.81-2,3.41,3.41,0,0,1,2.29-.69h.19v1.18h-.19a1.44,1.44,0,0,0-1,.31,1.31,1.31,0,0,0-.34,1V56h1.51v1.17h-1.51Z" transform="translate(-0.22 -0.1)" fill="#fff"/><path d="M109.3,53.86h-1.57l-3.88,10.41h1.75l1.07-3h3.53l1,3h1.91Zm-2.25,6.24,1.23-3.57.18-.53c0,.14.1.32.17.53l1.21,3.57Z" transform="translate(-0.22 -0.1)" fill="#fff"/><path d="M95.42,67.42l1.52-3.34-3-8h1.9l1.81,5.78a1.72,1.72,0,0,1,.07.21c0-.07,0-.14.07-.22L99.76,56h1.71L97.35,67.42Z" transform="translate(-0.22 -0.1)" fill="#fff"/><path d="M91.75,56.53a3.88,3.88,0,0,0-2.29-.64,6.39,6.39,0,0,0-1.55.19,5.65,5.65,0,0,0-1.18.42l-.16.07.49,1.09.16-.08a6.56,6.56,0,0,1,1-.34,4,4,0,0,1,1-.14,2.27,2.27,0,0,1,1.3.32A1.19,1.19,0,0,1,91,58.48v.32a9.93,9.93,0,0,0-3.47.87,2.35,2.35,0,0,0-1.37,2.25A2.19,2.19,0,0,0,87,63.78a4.34,4.34,0,0,0,2.59.64,8.28,8.28,0,0,0,1.67-.15,5.2,5.2,0,0,0,1.28-.42l.11-.05V58.63A2.43,2.43,0,0,0,91.75,56.53ZM91,63.11a3.18,3.18,0,0,1-1.25.2A2.36,2.36,0,0,1,88.3,63a1.22,1.22,0,0,1-.45-1.06,1.49,1.49,0,0,1,.75-1.43A6.77,6.77,0,0,1,91,59.83Z" transform="translate(-0.22 -0.1)" fill="#fff"/><path d="M75.92,64.42a7.22,7.22,0,0,1-1.54-.14,4.29,4.29,0,0,1-1.12-.44l-.14-.08.52-1.27.18.1a3.8,3.8,0,0,0,.81.32,3.94,3.94,0,0,0,1,.12,2,2,0,0,0,1.39-.46,1.57,1.57,0,0,0,.5-1.24,1.31,1.31,0,0,0-.38-1,4.3,4.3,0,0,0-1.54-.82,3.76,3.76,0,0,1-1.78-1.18,2.61,2.61,0,0,1-.57-1.63,2.87,2.87,0,0,1,.91-2.13,3.33,3.33,0,0,1,2.39-.87,5.44,5.44,0,0,1,1.35.14,3.21,3.21,0,0,1,1,.43l.13.08-.49,1.18-.18-.1a3.69,3.69,0,0,0-.76-.32,2.84,2.84,0,0,0-.9-.13,1.66,1.66,0,0,0-1.22.43,1.55,1.55,0,0,0-.43,1.16,1.21,1.21,0,0,0,.42,1,5.81,5.81,0,0,0,1.6.8,3.6,3.6,0,0,1,1.78,1.22,2.81,2.81,0,0,1,.55,1.68,2.92,2.92,0,0,1-1,2.28h0A3.63,3.63,0,0,1,75.92,64.42Z" transform="translate(-0.22 -0.1)" fill="#fff"/><path d="M164.45,31a8.07,8.07,0,0,0-4.83-1.37,12.88,12.88,0,0,0-3.23.39,12.3,12.3,0,0,0-2.46.87l-.62.32,1.27,2.85.67-.31a12.67,12.67,0,0,1,1.9-.69,7.76,7.76,0,0,1,2-.25,4.2,4.2,0,0,1,2.42.58,2.09,2.09,0,0,1,.71,1.86v.32a20.67,20.67,0,0,0-6.81,1.76,5.12,5.12,0,0,0-3,4.89,4.8,4.8,0,0,0,1.95,4.08,9,9,0,0,0,5.44,1.37,17.1,17.1,0,0,0,3.46-.31,11.24,11.24,0,0,0,2.68-.89l.4-.21V35.58A5.25,5.25,0,0,0,164.45,31ZM162.3,44.44a6.88,6.88,0,0,1-2.16.29,4.4,4.4,0,0,1-2.65-.66,2.18,2.18,0,0,1-.78-1.88,2.68,2.68,0,0,1,1.34-2.58,12.67,12.67,0,0,1,4.25-1.19Z" transform="translate(-0.22 -0.1)" fill="#fff"/><path d="M111.63,31a8.07,8.07,0,0,0-4.83-1.37,12.88,12.88,0,0,0-3.23.39,12.3,12.3,0,0,0-2.46.87l-.62.32,1.27,2.85.67-.31a12.67,12.67,0,0,1,1.9-.69,7.76,7.76,0,0,1,2-.25,4.2,4.2,0,0,1,2.42.58,2.09,2.09,0,0,1,.71,1.86v.32a20.67,20.67,0,0,0-6.81,1.76,5.12,5.12,0,0,0-3,4.89,4.8,4.8,0,0,0,2,4.08,9,9,0,0,0,5.44,1.37,17.1,17.1,0,0,0,3.46-.31,11.24,11.24,0,0,0,2.68-.89l.4-.21V35.58A5.25,5.25,0,0,0,111.63,31Zm-2.15,13.41a6.88,6.88,0,0,1-2.16.29,4.42,4.42,0,0,1-2.65-.66,2.17,2.17,0,0,1-.77-1.88,2.67,2.67,0,0,1,1.33-2.58,12.67,12.67,0,0,1,4.25-1.19Z" transform="translate(-0.22 -0.1)" fill="#fff"/><path d="M147.26,47.4h-4.32V31.08l.42-.2a11.8,11.8,0,0,1,3.12-.93,31.68,31.68,0,0,1,4.73-.26h1L151,33.26l-.63-.15a6.16,6.16,0,0,0-3.11.09Z" transform="translate(-0.22 -0.1)" fill="#fff"/><path d="M138.23,29.92c-1.51-2.21-5.28-3.22-8.14-3.22s-6.66,1-8.17,3.22a11.64,11.64,0,0,0-2.11,7.28,14,14,0,0,0,2.11,8c1.51,2.21,5.3,3.22,8.17,3.22s6.66-1,8.16-3.21a14,14,0,0,0,2.09-8A11.58,11.58,0,0,0,138.23,29.92Zm-3.39,13c-.54,1.18-2.89,2-4.75,2s-4.24-.79-4.77-2a14.38,14.38,0,0,1-1-5.87A10.6,10.6,0,0,1,125.37,32c.56-1.22,2.89-2,4.72-2s4.16.81,4.72,2a10.69,10.69,0,0,1,1.05,5.12A14.43,14.43,0,0,1,134.84,43Z" transform="translate(-0.22 -0.1)" fill="#fff"/><path d="M97,47.4H92.67V30H97Z" transform="translate(-0.22 -0.1)" fill="#fff"/><path d="M86.59,47.41l-7.68-8.65-.06,8.64H74.44V27h4.42V34.7L86.54,27h5.12l-9.09,9.52L91.89,47.4Z" transform="translate(-0.22 -0.1)" fill="#fff"/><path d="M157.59,6.48a8.07,8.07,0,0,0-4.83-1.37,13,13,0,0,0-3.24.4,12.18,12.18,0,0,0-2.45.87l-.62.31,1.26,2.85.67-.3a12.4,12.4,0,0,1,1.91-.69,7.76,7.76,0,0,1,2-.26,4.2,4.2,0,0,1,2.42.59,2.09,2.09,0,0,1,.71,1.86v.32a20.19,20.19,0,0,0-6.81,1.76,5.12,5.12,0,0,0-3,4.89,4.8,4.8,0,0,0,2,4.07,9,9,0,0,0,5.44,1.38,17.89,17.89,0,0,0,3.47-.31h0a10.81,10.81,0,0,0,2.68-.9l.4-.2V11A5.26,5.26,0,0,0,157.59,6.48ZM155.44,19.9a6.88,6.88,0,0,1-2.16.29,4.45,4.45,0,0,1-2.65-.66,2.19,2.19,0,0,1-.78-1.88,2.66,2.66,0,0,1,1.34-2.58,12.67,12.67,0,0,1,4.25-1.19Z" transform="translate(-0.22 -0.1)" fill="#fff"/><path d="M174.11,6.48a8,8,0,0,0-4.83-1.37,13,13,0,0,0-3.24.4,12.42,12.42,0,0,0-2.45.87l-.62.31,1.26,2.85.67-.3a12.4,12.4,0,0,1,1.91-.69,7.76,7.76,0,0,1,2-.26,4.2,4.2,0,0,1,2.42.59,2.09,2.09,0,0,1,.71,1.86v.32a20.19,20.19,0,0,0-6.81,1.76,5.12,5.12,0,0,0-3,4.89,4.8,4.8,0,0,0,1.95,4.07,9,9,0,0,0,5.44,1.38,17.89,17.89,0,0,0,3.47-.31h0a10.81,10.81,0,0,0,2.68-.9l.4-.2V11A5.26,5.26,0,0,0,174.11,6.48ZM172,19.9a6.88,6.88,0,0,1-2.16.29,4.45,4.45,0,0,1-2.65-.66,2.19,2.19,0,0,1-.78-1.88,2.66,2.66,0,0,1,1.34-2.58A12.67,12.67,0,0,1,172,13.88Z" transform="translate(-0.22 -0.1)" fill="#fff"/><path d="M111.37,6.48a8.09,8.09,0,0,0-4.83-1.37,13,13,0,0,0-3.24.4,12.3,12.3,0,0,0-2.46.87l-.61.31,1.26,2.85.67-.3a12.67,12.67,0,0,1,1.9-.69,7.76,7.76,0,0,1,2-.26,4.23,4.23,0,0,1,2.43.59,2.09,2.09,0,0,1,.71,1.86v.32a20.19,20.19,0,0,0-6.82,1.76,5.12,5.12,0,0,0-3,4.89,4.78,4.78,0,0,0,2,4.07,8.91,8.91,0,0,0,5.44,1.38,17.78,17.78,0,0,0,3.46-.31h0A10.81,10.81,0,0,0,113,22l.41-.2V11A5.29,5.29,0,0,0,111.37,6.48ZM109.22,19.9a6.92,6.92,0,0,1-2.16.29,4.51,4.51,0,0,1-2.66-.66,2.18,2.18,0,0,1-.77-1.88A2.65,2.65,0,0,1,105,15.07a12.67,12.67,0,0,1,4.26-1.19Z" transform="translate(-0.22 -0.1)" fill="#fff"/></svg>